<?xml version="1.0" encoding="UTF-8" standalone="no"?>
<!-- Generator: Adobe Illustrator 16.0.0, SVG Export Plug-In . SVG Version: 6.00 Build 0)  -->

<svg
   xmlns:dc="http://purl.org/dc/elements/1.1/"
   xmlns:cc="http://creativecommons.org/ns#"
   xmlns:rdf="http://www.w3.org/1999/02/22-rdf-syntax-ns#"
   xmlns:svg="http://www.w3.org/2000/svg"
   xmlns="http://www.w3.org/2000/svg"
   xmlns:sodipodi="http://sodipodi.sourceforge.net/DTD/sodipodi-0.dtd"
   xmlns:inkscape="http://www.inkscape.org/namespaces/inkscape"
   version="1.1"
   x="0px"
   y="0px"
   width="18"
   height="18"
   viewBox="0 0 18 18"
   xml:space="preserve"
   id="svg2"
   inkscape:version="0.48.4 r9939"
   sodipodi:docname="search-find.svg"><metadata
     id="metadata11"><rdf:RDF><cc:Work
         rdf:about=""><dc:format>image/svg+xml</dc:format><dc:type
           rdf:resource="http://purl.org/dc/dcmitype/StillImage" /></cc:Work></rdf:RDF></metadata><defs
     id="defs9" /><sodipodi:namedview
     pagecolor="#ffffff"
     bordercolor="#666666"
     borderopacity="1"
     objecttolerance="10"
     gridtolerance="10"
     guidetolerance="10"
     inkscape:pageopacity="0"
     inkscape:pageshadow="2"
     inkscape:window-width="1440"
     inkscape:window-height="845"
     id="namedview7"
     showgrid="false"
     inkscape:showpageshadow="true"
     borderlayer="false"
     showborder="true"
     inkscape:zoom="9.8333333"
     inkscape:cx="12"
     inkscape:cy="12"
     inkscape:window-x="-3"
     inkscape:window-y="-3"
     inkscape:window-maximized="1"
     inkscape:current-layer="svg2" /><g
     id="Icons"
     style="opacity:0.75"
     transform="translate(-2.7457628,-2.9491526)"><path
       id="search-big"
       d="M 18.853,17.438 15.249,13.834 C 15.174,13.759 15.083,13.707 14.982,13.678 15.621,12.781 16,11.686 16,10.5 16,7.463 13.537,5 10.5,5 7.463,5 5,7.463 5,10.5 c 0,3.037 2.463,5.5 5.5,5.5 1.186,0 2.281,-0.379 3.18,-1.018 0.028,0.101 0.08,0.191 0.155,0.267 l 3.604,3.604 c 0.301,0.301 0.858,0.227 1.249,-0.165 0.391,-0.391 0.465,-0.949 0.165,-1.25 z M 10.5,14 C 8.568,14 7,12.432 7,10.5 7,8.568 8.568,7 10.5,7 12.432,7 14,8.568 14,10.5 14,12.432 12.432,14 10.5,14 z"
       inkscape:connector-curvature="0" /></g><g
     id="Guides"
     transform="translate(0,-6)" /></svg>