<?xml version="1.0" encoding="UTF-8" standalone="no"?>
<!-- Generator: Adobe Illustrator 13.0.1, SVG Export Plug-In . SVG Version: 6.00 Build 14948)  -->

<svg
   xmlns:dc="http://purl.org/dc/elements/1.1/"
   xmlns:cc="http://creativecommons.org/ns#"
   xmlns:rdf="http://www.w3.org/1999/02/22-rdf-syntax-ns#"
   xmlns:svg="http://www.w3.org/2000/svg"
   xmlns="http://www.w3.org/2000/svg"
   xmlns:sodipodi="http://sodipodi.sourceforge.net/DTD/sodipodi-0.dtd"
   xmlns:inkscape="http://www.inkscape.org/namespaces/inkscape"
   version="1.1"
   id="Vrstva_1"
   x="0px"
   y="0px"
   width="250"
   height="250"
   viewBox="0 0 249.99999 250"
   enable-background="new 0 0 229.809 443.13"
   xml:space="preserve"
   inkscape:version="0.48.4 r9939"
   sodipodi:docname="vindoga-flower.svg"><metadata
     id="metadata59"><rdf:RDF><cc:Work
         rdf:about=""><dc:format>image/svg+xml</dc:format><dc:type
           rdf:resource="http://purl.org/dc/dcmitype/StillImage" /></cc:Work></rdf:RDF></metadata><defs
     id="defs57" /><sodipodi:namedview
     pagecolor="#ffffff"
     bordercolor="#666666"
     borderopacity="1"
     objecttolerance="10000"
     gridtolerance="10000"
     guidetolerance="10000"
     inkscape:pageopacity="0"
     inkscape:pageshadow="2"
     inkscape:window-width="1440"
     inkscape:window-height="845"
     id="namedview55"
     showgrid="true"
     inkscape:zoom="1.5063498"
     inkscape:cx="139.06712"
     inkscape:cy="204.7874"
     inkscape:window-x="-3"
     inkscape:window-y="-3"
     inkscape:window-maximized="1"
     inkscape:current-layer="Vrstva_1"><inkscape:grid
       type="xygrid"
       id="grid3039"
       empspacing="5"
       visible="true"
       enabled="true"
       snapvisiblegridlinesonly="true" /></sodipodi:namedview><path
     style="fill:#004250;fill-rule:evenodd"
     inkscape:connector-curvature="0"
     id="path27"
     d="m 115.27383,119.5282 c -0.523,-2.361 0.308,-3.18 1.118,-5.157 -8.067,-6.933 -30.004993,-3.348 -38.982993,-2.393 -1.694,-0.693 -1.694,-0.693 -43.601,-2.795 -4.593,-0.886 -9.968001,-3.083 -14.556001,-1.157 6.397001,29.196 6.397001,29.196 7.655001,39.452 1.982,8.075 4.367,15.981 4.305,24.214 0.365,0.317 0.816,0.828 1.07,1.428 5.097,-2.378 9.997,-4.665 14.892,-6.957 22.541,-15.558 46.71,-29.454 68.099993,-46.635 z m -31.007993,20.516 -0.249,-0.597 0.797,-0.336 0.254,0.597 -0.802,0.336 z m -13.365,7.249 -0.336,-0.797 0.801,-0.336 0.336,0.799 -0.801,0.334 z m 42.942993,-22.244 c -4.603,0.763 -9.992,7.477 -13.55799,10.145 -21.817003,13.378 -43.486003,30.446 -66.220003,41.628 3.067,3.403 9.45,7.991 9.81,12.761 12.233,11.273 23.348,24.896 35.812,35.605 3.825,-6.529 7.146,-14.251 10.117,-21.128 7.184,-26.458 17.425993,-52.32 24.038993,-79.011 z m -66.017993,67.801 -0.25,-0.598 1.396,-0.585 0.25,0.6 -1.396,0.583 z m 49.806,-86.314 c 6.603993,1.214 13.206993,2.426 19.810993,3.64 -4.606,-13.773 -17.27099,-24.396004 -26.956993,-34.631006 -8.302,-13.629 -16.998,-27.091 -24.706,-40.971 -0.94,1.102 -1.804,2.4 -2.664,3.7 -10.164,4.267 -13.072,17.441 -20.454,24.995 -4.799,8.108 -23.300001,29.940006 -20.843001,39.694006 1.579,0.979 1.579,0.979 10.366001,2.916 21.818,1.154 44.004,2.627 65.447,0.657 z m 13.797993,-0.633 0.585,1.394 -0.595,0.252 -0.586,-1.394 0.596,-0.252 z m -0.499,-1.2 0.249,0.602 -1.396,0.583 -0.25,-0.597 1.397,-0.588 z m -3.072,-3.39501 0.25,0.595 -1.19,0.504 -0.254,-0.598 1.194,-0.501 z m -4.089,-6.95699 c -0.451,-0.516 -1.018,-0.746 -1.583,-0.979 2.658,0.758 2.658,0.758 1.583,0.979 z m -0.441,-2.160004 c -0.479,-0.034 -0.965,-0.064 -1.646,-0.017 0.316,-0.365 0.633,-0.729 0.743,-1.015 0.37,0.315 0.735,0.631 0.903,1.032 z m -1.718,-1.862 c -0.115,0.283 -0.23,0.568 -0.34599,0.852 -0.364,-0.317 -0.734,-0.628 -1.018,-0.746 0.399,-0.168 0.883,-0.134 1.36399,-0.106 z m -1.13799,-3.271 0.336,0.797 -0.797,0.336 -0.335996,-0.799 0.796996,-0.334 z m -6.733003,-6.548002 0.586,1.394 -0.6,0.25 -0.586,-1.394 0.6,-0.25 z m -30.273,-40.277 -0.331,-0.799 0.796,-0.333 0.336,0.796 -0.801,0.336 z M 156.47483,205.3832 c 11.575,-3.69 22.959,-7.295 34.338,-10.901 -10.246,-19.377 -31.981,-34.864 -46.71,-50.956 -8.433,-7.242 -17.359,-12.874 -25.047,-21.131 -0.398,0.166 -0.797,0.332 -1.311,0.785 -5.303,25.899 -15.731,50.205 -22.560993,75.815 -2.895,7.074 -5.985,14.229 -8.989,21.587 0.562,0.23 1.133,0.463 1.579,0.979 6.431,-1.996 12.943003,-3.793 19.455993,-5.591 10.477,-0.178 22.268,-5.593 31.972,-8.728 11.648,-1.845 11.648,-1.845 17.273,-1.859 z m -27.1,-66.224 -0.332,-0.796 0.596,-0.252 0.336,0.799 -0.6,0.249 z m 2.538,2.687 -0.504,-1.195 0.802,-0.333 0.499,1.192 -0.797,0.336 z m -10.836,-35.305 c 4.977,-4.90001 7.616,-12.571 10.841,-18.851004 6.608,-22.232002 21.903,-41.076002 30.413,-62.699002 -1.215,-0.662 -2.429,-1.325 -3.763,-1.704 -21.674,2.534 -43.025,3.057 -64.707993,2.784 -8.576,0.787 -16.571,2.971 -24.927,4.835 9.579,20.595 22.585,39.283 38.470993,55.351002 4.688,6.707004 9.181,13.492994 13.673,20.284004 z m 0.057,-3.775 0.249,0.6 -0.797,0.334 -0.254,-0.598 0.802,-0.336 z m 0.009,-1.64601 c 1.113,-0.698 1.113,-0.698 1.21,-2.14999 0.168,0.40099 0.417,0.99899 0.47,1.67999 -0.48,-0.031 -1.079,0.22 -1.68,0.47 z m 2.554,-3.41699 0.585,1.397 -0.796,0.33599 -0.586,-1.39699 0.797,-0.336 z m 1.43,-1.065 c -0.288,-0.115 -0.686,0.053 -1.084,0.221 0.316,-0.37 0.432,-0.653 0.547,-0.936 0.283,0.117 0.369,0.314 0.537,0.715 z m 3.489,-7.329004 0.331,0.801 -0.6,0.25 -0.331,-0.796 0.6,-0.255 z m 32.006,-63.368002 -0.254,-0.595 0.796,-0.336 0.25,0.6 -0.792,0.331 z m -38.749,91.989006 c 6.091,8.929 14.254,14.412 23.233,20.723 14.272,15.573 29.779,30.166 43.653,45.909 0.148,-0.766 0.096,-1.447 0.125,-1.927 2.197,-0.922 4.185,-1.759 6.263,-2.395 4.041,-12.715 7.516,-25.659 10.223,-38.751 l 1.199,-0.501 c 3.009,-11.815 7.852,-24.865 7.573,-26.628 2.059,-1.8 11.652,-28.097004 11.316,-28.894004 l 1.396,-0.585 c 0.835,-5.272002 3.84,-12.631002 6.651,-17.095002 -35.056,20.343002 -74.333,34.015996 -111.632,50.144006 z m 3.11,-5.995 c 32.073,-11.82301 63.628,-26.009004 95.235,-39.510006 9.013,-5.893 9.013,-5.893 14.042,-10.112 -0.652,-0.432 -1.214,-0.662 -1.785,-0.897 -0.216,-1.077 -0.437,-2.157 -0.652,-3.239 -10.962,-7.12 -22.02,-12.792 -34.617,-17.116 -0.532,-0.715 -1.065,-1.428 -1.8,-2.059 -9.161,-0.607 -17.771,-11.057 -27.437,-12.862 -1.492,2.033 -1.66,1.634 -4.051,2.635 -0.494,1.618 -0.902,3.432 -1.314,5.243 -8.289,15.434 -16.778,30.953 -25.187,46.674 -3.163,9.769002 -7.559,20.520996 -13.27,29.251006 l 0.836,1.992 z m 40.976,-78.857006 c 0.6,-0.25 1.281,-0.303 1.963,-0.353 l -0.696,1.697 c -0.452,-0.517 -0.898,-1.028 -1.267,-1.344 z"
     clip-rule="evenodd" /></svg>